<svg width="24" height="24" viewBox="0 0 24 24" fill="none" xmlns="http://www.w3.org/2000/svg">
<circle cx="12" cy="12" r="11.5" fill="#212121" stroke="white"/>
<path d="M10.25 10.8333C10.8944 10.8333 11.4167 10.311 11.4167 9.66667C11.4167 9.02233 10.8944 8.5 10.25 8.5C9.60571 8.5 9.08337 9.02233 9.08337 9.66667C9.08337 10.311 9.60571 10.8333 10.25 10.8333Z" stroke="white" stroke-linecap="round" stroke-linejoin="round"/>
<path d="M12.5833 6.16669H10.25C7.33329 6.16669 6.16663 7.33335 6.16663 10.25V13.75C6.16663 16.6667 7.33329 17.8334 10.25 17.8334H13.75C16.6666 17.8334 17.8333 16.6667 17.8333 13.75V10.8334" stroke="white" stroke-linecap="round" stroke-linejoin="round"/>
<path d="M16.165 6.51088L14.0475 8.62838C13.9658 8.71005 13.8841 8.86755 13.8725 8.98421L13.7558 9.79505C13.715 10.0867 13.9191 10.2909 14.2108 10.25L15.0216 10.1334C15.1325 10.1159 15.2958 10.04 15.3775 9.95838L17.495 7.84088C17.8625 7.47338 18.0316 7.05338 17.495 6.51671C16.9525 5.96838 16.5325 6.14338 16.165 6.51088Z" stroke="white" stroke-miterlimit="10" stroke-linecap="round" stroke-linejoin="round"/>
<path d="M15.8617 6.81415C16.0425 7.45581 16.5442 7.95748 17.1859 8.13831" stroke="white" stroke-miterlimit="10" stroke-linecap="round" stroke-linejoin="round"/>
<path d="M6.5575 16.0542L9.43333 14.1233C9.89416 13.8142 10.5592 13.8492 10.9733 14.205L11.1658 14.3742C11.6208 14.765 12.3558 14.765 12.8108 14.3742L15.2375 12.2917C15.6925 11.9008 16.4275 11.9008 16.8825 12.2917L17.8333 13.1083" stroke="white" stroke-linecap="round" stroke-linejoin="round"/>
</svg>
