<svg width="21" height="21" viewBox="0 0 21 21" fill="none" xmlns="http://www.w3.org/2000/svg">
<g clip-path="url(#clip0_645_3800)">
<path opacity="0.3" d="M10.625 13.125C12.0057 13.125 13.125 12.0057 13.125 10.625C13.125 9.24429 12.0057 8.125 10.625 8.125C9.24429 8.125 8.125 9.24429 8.125 10.625C8.125 12.0057 9.24429 13.125 10.625 13.125Z" fill="#FFC107"/>
<path d="M10.625 8.12498C12 8.12498 13.125 9.24998 13.125 10.625C13.125 12 12 13.125 10.625 13.125C9.25004 13.125 8.12504 12 8.12504 10.625C8.12504 9.24998 9.25004 8.12498 10.625 8.12498ZM10.625 6.45831C8.32504 6.45831 6.45837 8.32498 6.45837 10.625C6.45837 12.925 8.32504 14.7916 10.625 14.7916C12.925 14.7916 14.7917 12.925 14.7917 10.625C14.7917 8.32498 12.925 6.45831 10.625 6.45831ZM2.29171 11.4583H3.95837C4.41671 11.4583 4.79171 11.0833 4.79171 10.625C4.79171 10.1666 4.41671 9.79165 3.95837 9.79165H2.29171C1.83337 9.79165 1.45837 10.1666 1.45837 10.625C1.45837 11.0833 1.83337 11.4583 2.29171 11.4583ZM17.2917 11.4583H18.9584C19.4167 11.4583 19.7917 11.0833 19.7917 10.625C19.7917 10.1666 19.4167 9.79165 18.9584 9.79165H17.2917C16.8334 9.79165 16.4584 10.1666 16.4584 10.625C16.4584 11.0833 16.8334 11.4583 17.2917 11.4583ZM9.79171 2.29165V3.95831C9.79171 4.41665 10.1667 4.79165 10.625 4.79165C11.0834 4.79165 11.4584 4.41665 11.4584 3.95831V2.29165C11.4584 1.83331 11.0834 1.45831 10.625 1.45831C10.1667 1.45831 9.79171 1.83331 9.79171 2.29165ZM9.79171 17.2916V18.9583C9.79171 19.4166 10.1667 19.7916 10.625 19.7916C11.0834 19.7916 11.4584 19.4166 11.4584 18.9583V17.2916C11.4584 16.8333 11.0834 16.4583 10.625 16.4583C10.1667 16.4583 9.79171 16.8333 9.79171 17.2916ZM5.61671 4.44165C5.53961 4.36439 5.44804 4.3031 5.34723 4.26129C5.24642 4.21947 5.13835 4.19794 5.02921 4.19794C4.92007 4.19794 4.812 4.21947 4.71119 4.26129C4.61038 4.3031 4.5188 4.36439 4.44171 4.44165C4.36445 4.51874 4.30316 4.61031 4.26135 4.71113C4.21953 4.81194 4.198 4.92001 4.198 5.02915C4.198 5.13829 4.21953 5.24636 4.26135 5.34717C4.30316 5.44798 4.36445 5.53955 4.44171 5.61665L5.32504 6.49998C5.65004 6.82498 6.18337 6.82498 6.50004 6.49998C6.81671 6.17498 6.82504 5.64165 6.50004 5.32498L5.61671 4.44165ZM15.925 14.75C15.8479 14.6727 15.7564 14.6114 15.6556 14.5696C15.5547 14.5278 15.4467 14.5063 15.3375 14.5063C15.2284 14.5063 15.1203 14.5278 15.0195 14.5696C14.9187 14.6114 14.8271 14.6727 14.75 14.75C14.6728 14.8271 14.6115 14.9186 14.5697 15.0195C14.5279 15.1203 14.5063 15.2283 14.5063 15.3375C14.5063 15.4466 14.5279 15.5547 14.5697 15.6555C14.6115 15.7563 14.6728 15.8479 14.75 15.925L15.6334 16.8083C15.9584 17.1333 16.4917 17.1333 16.8084 16.8083C16.8856 16.7312 16.9469 16.6396 16.9887 16.5388C17.0306 16.438 17.0521 16.33 17.0521 16.2208C17.0521 16.1117 17.0306 16.0036 16.9887 15.9028C16.9469 15.802 16.8856 15.7104 16.8084 15.6333L15.925 14.75ZM16.8084 5.61665C16.8856 5.53955 16.9469 5.44798 16.9887 5.34717C17.0306 5.24636 17.0521 5.13829 17.0521 5.02915C17.0521 4.92001 17.0306 4.81194 16.9887 4.71113C16.9469 4.61031 16.8856 4.51874 16.8084 4.44165C16.7313 4.36439 16.6397 4.3031 16.5389 4.26129C16.4381 4.21947 16.33 4.19794 16.2209 4.19794C16.1117 4.19794 16.0037 4.21947 15.9029 4.26129C15.802 4.3031 15.7105 4.36439 15.6334 4.44165L14.75 5.32498C14.425 5.64998 14.425 6.18331 14.75 6.49998C15.075 6.81665 15.6084 6.82498 15.925 6.49998L16.8084 5.61665ZM6.50004 15.925C6.57729 15.8479 6.63858 15.7563 6.6804 15.6555C6.72222 15.5547 6.74374 15.4466 6.74374 15.3375C6.74374 15.2283 6.72222 15.1203 6.6804 15.0195C6.63858 14.9186 6.57729 14.8271 6.50004 14.75C6.42295 14.6727 6.33137 14.6114 6.23056 14.5696C6.12975 14.5278 6.02168 14.5063 5.91254 14.5063C5.8034 14.5063 5.69533 14.5278 5.59452 14.5696C5.49371 14.6114 5.40213 14.6727 5.32504 14.75L4.44171 15.6333C4.11671 15.9583 4.11671 16.4916 4.44171 16.8083C4.76671 17.125 5.30004 17.1333 5.61671 16.8083L6.50004 15.925Z" fill="#FFC107"/>
</g>
<defs>
<clipPath id="clip0_645_3800">
<rect width="20" height="20" fill="white" transform="translate(0.625 0.625)"/>
</clipPath>
</defs>
</svg>
