<svg width="21" height="21" viewBox="0 0 21 21" fill="none" xmlns="http://www.w3.org/2000/svg">
<path opacity="0.3" d="M10.625 6.04169C8.54996 6.04169 7.29163 7.72502 7.29163 9.79169V14.7917H13.9583V9.79169C13.9583 7.72502 12.7 6.04169 10.625 6.04169Z" fill="#88898A"/>
<path d="M10.625 18.9583C11.5417 18.9583 12.2917 18.2083 12.2917 17.2916H8.95837C8.95837 18.2083 9.70837 18.9583 10.625 18.9583ZM15.625 13.9583V9.79165C15.625 7.23331 14.2667 5.09165 11.875 4.52498V3.95831C11.875 3.26665 11.3167 2.70831 10.625 2.70831C9.93337 2.70831 9.37504 3.26665 9.37504 3.95831V4.52498C6.99171 5.09165 5.62504 7.22498 5.62504 9.79165V13.9583L3.95837 15.625V16.4583H17.2917V15.625L15.625 13.9583ZM13.9584 14.7916H7.29171V9.79165C7.29171 7.72498 8.55004 6.04165 10.625 6.04165C12.7 6.04165 13.9584 7.72498 13.9584 9.79165V14.7916Z" fill="#88898A"/>
</svg>
