<svg width="67" height="32" viewBox="0 0 67 32" fill="none" xmlns="http://www.w3.org/2000/svg">
<path d="M0.295074 32V16.8058H3.31666V18.6619H3.45335C3.58764 18.3645 3.78188 18.0624 4.03608 17.7554C4.29507 17.4437 4.6308 17.1847 5.04327 16.9784C5.46054 16.7674 5.97853 16.6619 6.59723 16.6619C7.40299 16.6619 8.14639 16.8729 8.82745 17.295C9.5085 17.7122 10.0529 18.3429 10.4605 19.1871C10.8682 20.0264 11.072 21.0791 11.072 22.3453C11.072 23.5779 10.873 24.6187 10.4749 25.4676C10.0816 26.3118 9.54447 26.952 8.86342 27.3885C8.18716 27.8201 7.42936 28.036 6.59004 28.036C5.99531 28.036 5.48932 27.9377 5.07205 27.741C4.65958 27.5444 4.32145 27.2974 4.05766 27C3.79387 26.6978 3.59244 26.3933 3.45335 26.0863H3.35982V32H0.295074ZM3.29507 22.3309C3.29507 22.988 3.3862 23.5612 3.56845 24.0504C3.75071 24.5396 4.0145 24.9209 4.35982 25.1943C4.70514 25.4628 5.12481 25.5971 5.61881 25.5971C6.11761 25.5971 6.53968 25.4604 6.885 25.1871C7.23032 24.9089 7.49171 24.5252 7.66917 24.036C7.85143 23.542 7.94255 22.9736 7.94255 22.3309C7.94255 21.6931 7.85382 21.1319 7.67637 20.6475C7.49891 20.1631 7.23752 19.7842 6.89219 19.5108C6.54687 19.2374 6.12241 19.1007 5.61881 19.1007C5.12001 19.1007 4.69795 19.2326 4.35263 19.4964C4.0121 19.7602 3.75071 20.1343 3.56845 20.6187C3.3862 21.1031 3.29507 21.6739 3.29507 22.3309Z" fill="#D10234"/>
<path d="M18.1512 28.0719C17.0145 28.0719 16.0361 27.8417 15.2159 27.3813C14.4006 26.9161 13.7723 26.259 13.331 25.4101C12.8898 24.5564 12.6692 23.5468 12.6692 22.3813C12.6692 21.2446 12.8898 20.247 13.331 19.3885C13.7723 18.53 14.3934 17.8609 15.1943 17.3813C16.0001 16.9017 16.9449 16.6619 18.0289 16.6619C18.7579 16.6619 19.4366 16.7794 20.0648 17.0144C20.6979 17.2446 21.2495 17.5923 21.7195 18.0576C22.1943 18.5228 22.5636 19.1079 22.8274 19.813C23.0912 20.5132 23.2231 21.3333 23.2231 22.2734V23.1151H13.8922V21.2158H20.3382C20.3382 20.7746 20.2423 20.3837 20.0505 20.0432C19.8586 19.7026 19.5924 19.4365 19.2519 19.2446C18.9162 19.048 18.5253 18.9496 18.0792 18.9496C17.614 18.9496 17.2015 19.0576 16.8418 19.2734C16.4869 19.4844 16.2087 19.7698 16.0073 20.1295C15.8059 20.4844 15.7027 20.8801 15.6979 21.3166V23.1223C15.6979 23.6691 15.7987 24.1415 16.0001 24.5396C16.2063 24.9377 16.4965 25.2446 16.8706 25.4604C17.2447 25.6763 17.6884 25.7842 18.2015 25.7842C18.5421 25.7842 18.8538 25.7362 19.1368 25.6403C19.4198 25.5444 19.662 25.4005 19.8634 25.2086C20.0648 25.0168 20.2183 24.7818 20.3238 24.5036L23.1584 24.6907C23.0145 25.3717 22.7195 25.9664 22.2735 26.4748C21.8322 26.9784 21.2615 27.3717 20.5613 27.6547C19.8658 27.9329 19.0625 28.0719 18.1512 28.0719Z" fill="#D10234"/>
<path d="M30.2159 28.0719C29.0984 28.0719 28.132 27.8345 27.3166 27.3597C26.5061 26.8801 25.8802 26.2134 25.4389 25.3597C24.9977 24.5012 24.7771 23.506 24.7771 22.3741C24.7771 21.2326 24.9977 20.235 25.4389 19.3813C25.8802 18.5228 26.5061 17.8561 27.3166 17.3813C28.132 16.9017 29.0984 16.6619 30.2159 16.6619C31.3334 16.6619 32.2975 16.9017 33.108 17.3813C33.9234 17.8561 34.5517 18.5228 34.9929 19.3813C35.4341 20.235 35.6548 21.2326 35.6548 22.3741C35.6548 23.506 35.4341 24.5012 34.9929 25.3597C34.5517 26.2134 33.9234 26.8801 33.108 27.3597C32.2975 27.8345 31.3334 28.0719 30.2159 28.0719ZM30.2303 25.6978C30.7387 25.6978 31.1632 25.554 31.5037 25.2662C31.8442 24.9736 32.1008 24.5755 32.2735 24.0719C32.4509 23.5684 32.5397 22.9952 32.5397 22.3525C32.5397 21.7098 32.4509 21.1367 32.2735 20.6331C32.1008 20.1295 31.8442 19.7314 31.5037 19.4389C31.1632 19.1463 30.7387 19 30.2303 19C29.7171 19 29.2855 19.1463 28.9353 19.4389C28.59 19.7314 28.3286 20.1295 28.1512 20.6331C27.9785 21.1367 27.8922 21.7098 27.8922 22.3525C27.8922 22.9952 27.9785 23.5684 28.1512 24.0719C28.3286 24.5755 28.59 24.9736 28.9353 25.2662C29.2855 25.554 29.7171 25.6978 30.2303 25.6978Z" fill="#D10234"/>
<path d="M37.6476 32V16.8058H40.6692V18.6619H40.8058C40.9401 18.3645 41.1344 18.0624 41.3886 17.7554C41.6476 17.4437 41.9833 17.1847 42.3958 16.9784C42.813 16.7674 43.331 16.6619 43.9497 16.6619C44.7555 16.6619 45.4989 16.8729 46.1799 17.295C46.861 17.7122 47.4054 18.3429 47.813 19.1871C48.2207 20.0264 48.4245 21.0791 48.4245 22.3453C48.4245 23.5779 48.2255 24.6187 47.8274 25.4676C47.4341 26.3118 46.897 26.952 46.2159 27.3885C45.5397 27.8201 44.7819 28.036 43.9425 28.036C43.3478 28.036 42.8418 27.9377 42.4246 27.741C42.0121 27.5444 41.674 27.2974 41.4102 27C41.1464 26.6978 40.9449 26.3933 40.8058 26.0863H40.7123V32H37.6476ZM40.6476 22.3309C40.6476 22.988 40.7387 23.5612 40.921 24.0504C41.1032 24.5396 41.367 24.9209 41.7123 25.1943C42.0576 25.4628 42.4773 25.5971 42.9713 25.5971C43.4701 25.5971 43.8922 25.4604 44.2375 25.1871C44.5828 24.9089 44.8442 24.5252 45.0217 24.036C45.2039 23.542 45.2951 22.9736 45.2951 22.3309C45.2951 21.6931 45.2063 21.1319 45.0289 20.6475C44.8514 20.1631 44.59 19.7842 44.2447 19.5108C43.8994 19.2374 43.4749 19.1007 42.9713 19.1007C42.4725 19.1007 42.0505 19.2326 41.7051 19.4964C41.3646 19.7602 41.1032 20.1343 40.921 20.6187C40.7387 21.1031 40.6476 21.6739 40.6476 22.3309Z" fill="#D10234"/>
<path d="M53.5325 13.1223V27.8561H50.4677V13.1223H53.5325Z" fill="#D10234"/>
<path d="M61.0235 28.0719C59.8868 28.0719 58.9084 27.8417 58.0882 27.3813C57.2729 26.9161 56.6446 26.259 56.2033 25.4101C55.7621 24.5564 55.5415 23.5468 55.5415 22.3813C55.5415 21.2446 55.7621 20.247 56.2033 19.3885C56.6446 18.53 57.2657 17.8609 58.0666 17.3813C58.8724 16.9017 59.8172 16.6619 60.9012 16.6619C61.6302 16.6619 62.3088 16.7794 62.9371 17.0144C63.5702 17.2446 64.1218 17.5923 64.5918 18.0576C65.0666 18.5228 65.4359 19.1079 65.6997 19.813C65.9635 20.5132 66.0954 21.3333 66.0954 22.2734V23.1151H56.7645V21.2158H63.2105C63.2105 20.7746 63.1146 20.3837 62.9227 20.0432C62.7309 19.7026 62.4647 19.4365 62.1242 19.2446C61.7885 19.048 61.3976 18.9496 60.9515 18.9496C60.4863 18.9496 60.0738 19.0576 59.7141 19.2734C59.3592 19.4844 59.081 19.7698 58.8796 20.1295C58.6781 20.4844 58.575 20.8801 58.5702 21.3166V23.1223C58.5702 23.6691 58.671 24.1415 58.8724 24.5396C59.0786 24.9377 59.3688 25.2446 59.7429 25.4604C60.117 25.6763 60.5606 25.7842 61.0738 25.7842C61.4144 25.7842 61.7261 25.7362 62.0091 25.6403C62.2921 25.5444 62.5343 25.4005 62.7357 25.2086C62.9371 25.0168 63.0906 24.7818 63.1961 24.5036L66.0307 24.6907C65.8868 25.3717 65.5918 25.9664 65.1458 26.4748C64.7045 26.9784 64.1338 27.3717 63.4335 27.6547C62.7381 27.9329 61.9347 28.0719 61.0235 28.0719Z" fill="#D10234"/>
<path d="M0 11.3957V10.4245L4.70503 4.38129V4.29496H0.151079V3.10791H6.34532V4.1223L1.76978 10.1223V10.2086H6.4964V11.3957H0Z" fill="#D10234"/>
<path d="M10.8966 11.5899C10.3714 11.5899 9.89478 11.491 9.46672 11.2932C9.03866 11.0917 8.69874 10.8022 8.44694 10.4245C8.19514 10.0432 8.06924 9.58273 8.06924 9.04316C8.06924 8.56834 8.16277 8.18345 8.34982 7.88849C8.53687 7.58992 8.78687 7.35611 9.09982 7.18705C9.41276 7.01798 9.75809 6.89208 10.1358 6.80935C10.5171 6.72302 10.9002 6.65467 11.2851 6.60431C11.7887 6.53956 12.1969 6.491 12.5099 6.45863C12.8264 6.42266 13.0566 6.36331 13.2005 6.28057C13.348 6.19784 13.4218 6.05395 13.4218 5.84892V5.80575C13.4218 5.27338 13.2761 4.85971 12.9847 4.56475C12.6969 4.26978 12.2599 4.1223 11.6736 4.1223C11.0656 4.1223 10.589 4.25539 10.2437 4.52158C9.89838 4.78777 9.65557 5.07194 9.51528 5.3741L8.30665 4.94244C8.52248 4.43885 8.81025 4.04676 9.16996 3.76619C9.53327 3.48201 9.92895 3.28417 10.357 3.17266C10.7887 3.05755 11.2131 3 11.6304 3C11.8966 3 12.2023 3.03237 12.5477 3.09712C12.8966 3.15827 13.2329 3.28597 13.5566 3.48021C13.884 3.67446 14.1556 3.96762 14.3714 4.35971C14.5872 4.7518 14.6951 5.27698 14.6951 5.93525V11.3957H13.4218V10.2734H13.357C13.2707 10.4532 13.1268 10.6457 12.9254 10.8507C12.7239 11.0557 12.4559 11.2302 12.1214 11.3741C11.7869 11.518 11.3786 11.5899 10.8966 11.5899ZM11.0908 10.446C11.5944 10.446 12.0189 10.3471 12.3642 10.1493C12.7131 9.95143 12.9757 9.69604 13.152 9.38309C13.3318 9.07014 13.4218 8.741 13.4218 8.39568V7.23021C13.3678 7.29496 13.2491 7.35431 13.0656 7.40827C12.8858 7.45863 12.6772 7.50359 12.4397 7.54316C12.2059 7.57913 11.9775 7.61151 11.7545 7.64028C11.5351 7.66546 11.357 7.68705 11.2203 7.70503C10.8894 7.7482 10.58 7.81834 10.2923 7.91546C10.0081 8.00899 9.77787 8.15107 9.60161 8.34172C9.42895 8.52877 9.34262 8.78417 9.34262 9.10791C9.34262 9.55035 9.50629 9.88489 9.83363 10.1115C10.1646 10.3345 10.5836 10.446 11.0908 10.446Z" fill="#D10234"/>
<path d="M17.0193 11.3957V3.10791H18.2927V11.3957H17.0193ZM17.6668 1.72662C17.4186 1.72662 17.2046 1.64209 17.0247 1.47302C16.8485 1.30396 16.7603 1.10072 16.7603 0.863309C16.7603 0.625899 16.8485 0.422662 17.0247 0.253597C17.2046 0.0845322 17.4186 0 17.6668 0C17.915 0 18.1272 0.0845322 18.3035 0.253597C18.4834 0.422662 18.5733 0.625899 18.5733 0.863309C18.5733 1.10072 18.4834 1.30396 18.3035 1.47302C18.1272 1.64209 17.915 1.72662 17.6668 1.72662Z" fill="#D10234"/>
<path d="M21.8984 6.41007V11.3957H20.625V3.10791H21.8552V4.40287H21.9631C22.1574 3.98201 22.4523 3.64388 22.848 3.38849C23.2437 3.12949 23.7545 3 24.3804 3C24.9415 3 25.4325 3.11511 25.8534 3.34532C26.2743 3.57194 26.6016 3.91726 26.8354 4.38129C27.0692 4.84172 27.1861 5.42446 27.1861 6.12949V11.3957H25.9128V6.21582C25.9128 5.56475 25.7437 5.05755 25.4056 4.69424C25.0674 4.32734 24.6034 4.14388 24.0135 4.14388C23.607 4.14388 23.2437 4.23201 22.9235 4.40827C22.607 4.58453 22.357 4.84172 22.1736 5.17985C21.9901 5.51798 21.8984 5.92805 21.8984 6.41007Z" fill="#D10234"/>
<path d="M29.2756 11.3957V10.4245L33.9806 4.38129V4.29496H29.4267V3.10791H35.6209V4.1223L31.0454 10.1223V10.2086H35.772V11.3957H29.2756Z" fill="#D10234"/>
<path d="M40.8628 11.5683C40.1146 11.5683 39.4582 11.3903 38.8934 11.0342C38.3323 10.6781 37.8934 10.1799 37.5769 9.53956C37.2639 8.89928 37.1074 8.15108 37.1074 7.29496C37.1074 6.43165 37.2639 5.67805 37.5769 5.03417C37.8934 4.39029 38.3323 3.89029 38.8934 3.53417C39.4582 3.17806 40.1146 3 40.8628 3C41.611 3 42.2657 3.17806 42.8269 3.53417C43.3916 3.89029 43.8305 4.39029 44.1434 5.03417C44.46 5.67805 44.6182 6.43165 44.6182 7.29496C44.6182 8.15108 44.46 8.89928 44.1434 9.53956C43.8305 10.1799 43.3916 10.6781 42.8269 11.0342C42.2657 11.3903 41.611 11.5683 40.8628 11.5683ZM40.8628 10.4245C41.4312 10.4245 41.8988 10.2788 42.2657 9.9874C42.6326 9.69604 42.9042 9.31295 43.0805 8.83813C43.2567 8.36331 43.3448 7.84892 43.3448 7.29496C43.3448 6.741 43.2567 6.22482 43.0805 5.7464C42.9042 5.26798 42.6326 4.88129 42.2657 4.58633C41.8988 4.29136 41.4312 4.14388 40.8628 4.14388C40.2945 4.14388 39.8269 4.29136 39.46 4.58633C39.0931 4.88129 38.8215 5.26798 38.6452 5.7464C38.469 6.22482 38.3808 6.741 38.3808 7.29496C38.3808 7.84892 38.469 8.36331 38.6452 8.83813C38.8215 9.31295 39.0931 9.69604 39.46 9.9874C39.8269 10.2788 40.2945 10.4245 40.8628 10.4245Z" fill="#D10234"/>
</svg>
