<svg width="14" height="13" viewBox="0 0 14 13" fill="none" xmlns="http://www.w3.org/2000/svg">
<path d="M13.237 12.1796C13.6276 11.7891 13.6276 11.1559 13.237 10.7654L9.67876 7.20711C9.28823 6.81658 9.28824 6.18342 9.67876 5.79289L13.237 2.23461C13.6276 1.84408 13.6276 1.21092 13.237 0.820392L13.1238 0.707107C12.7332 0.316583 12.1001 0.316582 11.7095 0.707107L6.62376 5.79289C6.23324 6.18342 6.23324 6.81658 6.62376 7.20711L11.7095 12.2929C12.1001 12.6834 12.7332 12.6834 13.1238 12.2929L13.237 12.1796ZM2.66665 12C2.66665 12.5523 2.21894 13 1.66665 13H1.49999C0.947701 13 0.499986 12.5523 0.499986 12L0.499986 1C0.499986 0.447715 0.947701 0 1.49999 0H1.66665C2.21894 0 2.66665 0.447715 2.66665 1L2.66665 12Z" fill="white"/>
</svg>
