<svg width="67" height="32" viewBox="0 0 67 32" fill="none" xmlns="http://www.w3.org/2000/svg">
<path d="M1.02797 32V16.8058H4.04955V18.6619H4.18624C4.32053 18.3645 4.51478 18.0624 4.76898 17.7554C5.02797 17.4437 5.3637 17.1847 5.77617 16.9784C6.19343 16.7674 6.71142 16.6619 7.33013 16.6619C8.13588 16.6619 8.87928 16.8729 9.56034 17.295C10.2414 17.7122 10.7858 18.3429 11.1934 19.1871C11.6011 20.0264 11.8049 21.0791 11.8049 22.3453C11.8049 23.5779 11.6059 24.6187 11.2078 25.4676C10.8145 26.3118 10.2774 26.952 9.59631 27.3885C8.92005 27.8201 8.16226 28.036 7.32293 28.036C6.72821 28.036 6.22221 27.9377 5.80495 27.741C5.39248 27.5444 5.05435 27.2974 4.79056 27C4.52677 26.6978 4.32533 26.3933 4.18624 26.0863H4.09272V32H1.02797ZM4.02797 22.3309C4.02797 22.988 4.1191 23.5612 4.30135 24.0504C4.4836 24.5396 4.74739 24.9209 5.09272 25.1943C5.43804 25.4628 5.8577 25.5971 6.35171 25.5971C6.85051 25.5971 7.27257 25.4604 7.61789 25.1871C7.96322 24.9089 8.22461 24.5252 8.40207 24.036C8.58432 23.542 8.67545 22.9736 8.67545 22.3309C8.67545 21.6931 8.58672 21.1319 8.40926 20.6475C8.2318 20.1631 7.97041 19.7842 7.62509 19.5108C7.27977 19.2374 6.85531 19.1007 6.35171 19.1007C5.85291 19.1007 5.43085 19.2326 5.08552 19.4964C4.74499 19.7602 4.4836 20.1343 4.30135 20.6187C4.1191 21.1031 4.02797 21.6739 4.02797 22.3309Z" fill="white"/>
<path d="M18.8841 28.0719C17.7474 28.0719 16.769 27.8417 15.9488 27.3813C15.1335 26.9161 14.5052 26.259 14.0639 25.4101C13.6227 24.5564 13.4021 23.5468 13.4021 22.3813C13.4021 21.2446 13.6227 20.247 14.0639 19.3885C14.5052 18.53 15.1263 17.8609 15.9272 17.3813C16.733 16.9017 17.6778 16.6619 18.7618 16.6619C19.4908 16.6619 20.1694 16.7794 20.7977 17.0144C21.4308 17.2446 21.9824 17.5923 22.4524 18.0576C22.9272 18.5228 23.2965 19.1079 23.5603 19.813C23.8241 20.5132 23.956 21.3333 23.956 22.2734V23.1151H14.6251V21.2158H21.0711C21.0711 20.7746 20.9752 20.3837 20.7834 20.0432C20.5915 19.7026 20.3253 19.4365 19.9848 19.2446C19.6491 19.048 19.2582 18.9496 18.8121 18.9496C18.3469 18.9496 17.9344 19.0576 17.5747 19.2734C17.2198 19.4844 16.9416 19.7698 16.7402 20.1295C16.5388 20.4844 16.4356 20.8801 16.4308 21.3166V23.1223C16.4308 23.6691 16.5316 24.1415 16.733 24.5396C16.9392 24.9377 17.2294 25.2446 17.6035 25.4604C17.9776 25.6763 18.4212 25.7842 18.9344 25.7842C19.275 25.7842 19.5867 25.7362 19.8697 25.6403C20.1527 25.5444 20.3949 25.4005 20.5963 25.2086C20.7977 25.0168 20.9512 24.7818 21.0567 24.5036L23.8913 24.6907C23.7474 25.3717 23.4524 25.9664 23.0064 26.4748C22.5651 26.9784 21.9944 27.3717 21.2941 27.6547C20.5987 27.9329 19.7953 28.0719 18.8841 28.0719Z" fill="white"/>
<path d="M30.9488 28.0719C29.8313 28.0719 28.8649 27.8345 28.0495 27.3597C27.239 26.8801 26.6131 26.2134 26.1718 25.3597C25.7306 24.5012 25.51 23.506 25.51 22.3741C25.51 21.2326 25.7306 20.235 26.1718 19.3813C26.6131 18.5228 27.239 17.8561 28.0495 17.3813C28.8649 16.9017 29.8313 16.6619 30.9488 16.6619C32.0663 16.6619 33.0304 16.9017 33.8409 17.3813C34.6562 17.8561 35.2845 18.5228 35.7258 19.3813C36.167 20.235 36.3877 21.2326 36.3877 22.3741C36.3877 23.506 36.167 24.5012 35.7258 25.3597C35.2845 26.2134 34.6562 26.8801 33.8409 27.3597C33.0304 27.8345 32.0663 28.0719 30.9488 28.0719ZM30.9632 25.6978C31.4716 25.6978 31.8961 25.554 32.2366 25.2662C32.5771 24.9736 32.8337 24.5755 33.0064 24.0719C33.1838 23.5684 33.2726 22.9952 33.2726 22.3525C33.2726 21.7098 33.1838 21.1367 33.0064 20.6331C32.8337 20.1295 32.5771 19.7314 32.2366 19.4389C31.8961 19.1463 31.4716 19 30.9632 19C30.45 19 30.0184 19.1463 29.6682 19.4389C29.3229 19.7314 29.0615 20.1295 28.8841 20.6331C28.7114 21.1367 28.6251 21.7098 28.6251 22.3525C28.6251 22.9952 28.7114 23.5684 28.8841 24.0719C29.0615 24.5755 29.3229 24.9736 29.6682 25.2662C30.0184 25.554 30.45 25.6978 30.9632 25.6978Z" fill="white"/>
<path d="M38.3805 32V16.8058H41.4021V18.6619H41.5387C41.673 18.3645 41.8673 18.0624 42.1215 17.7554C42.3805 17.4437 42.7162 17.1847 43.1287 16.9784C43.5459 16.7674 44.0639 16.6619 44.6826 16.6619C45.4884 16.6619 46.2318 16.8729 46.9128 17.295C47.5939 17.7122 48.1383 18.3429 48.5459 19.1871C48.9536 20.0264 49.1574 21.0791 49.1574 22.3453C49.1574 23.5779 48.9584 24.6187 48.5603 25.4676C48.167 26.3118 47.6299 26.952 46.9488 27.3885C46.2726 27.8201 45.5148 28.036 44.6754 28.036C44.0807 28.036 43.5747 27.9377 43.1574 27.741C42.745 27.5444 42.4068 27.2974 42.1431 27C41.8793 26.6978 41.6778 26.3933 41.5387 26.0863H41.4452V32H38.3805ZM41.3805 22.3309C41.3805 22.988 41.4716 23.5612 41.6539 24.0504C41.8361 24.5396 42.0999 24.9209 42.4452 25.1943C42.7905 25.4628 43.2102 25.5971 43.7042 25.5971C44.203 25.5971 44.6251 25.4604 44.9704 25.1871C45.3157 24.9089 45.5771 24.5252 45.7546 24.036C45.9368 23.542 46.028 22.9736 46.028 22.3309C46.028 21.6931 45.9392 21.1319 45.7618 20.6475C45.5843 20.1631 45.3229 19.7842 44.9776 19.5108C44.6323 19.2374 44.2078 19.1007 43.7042 19.1007C43.2054 19.1007 42.7833 19.2326 42.438 19.4964C42.0975 19.7602 41.8361 20.1343 41.6539 20.6187C41.4716 21.1031 41.3805 21.6739 41.3805 22.3309Z" fill="white"/>
<path d="M54.2654 13.1223V27.8561H51.2006V13.1223H54.2654Z" fill="white"/>
<path d="M61.7564 28.0719C60.6197 28.0719 59.6413 27.8417 58.8211 27.3813C58.0058 26.9161 57.3775 26.259 56.9362 25.4101C56.495 24.5564 56.2743 23.5468 56.2743 22.3813C56.2743 21.2446 56.495 20.247 56.9362 19.3885C57.3775 18.53 57.9986 17.8609 58.7995 17.3813C59.6053 16.9017 60.5501 16.6619 61.6341 16.6619C62.3631 16.6619 63.0417 16.7794 63.67 17.0144C64.3031 17.2446 64.8547 17.5923 65.3247 18.0576C65.7995 18.5228 66.1688 19.1079 66.4326 19.813C66.6964 20.5132 66.8283 21.3333 66.8283 22.2734V23.1151H57.4974V21.2158H63.9434C63.9434 20.7746 63.8475 20.3837 63.6556 20.0432C63.4638 19.7026 63.1976 19.4365 62.8571 19.2446C62.5213 19.048 62.1305 18.9496 61.6844 18.9496C61.2192 18.9496 60.8067 19.0576 60.447 19.2734C60.0921 19.4844 59.8139 19.7698 59.6125 20.1295C59.411 20.4844 59.3079 20.8801 59.3031 21.3166V23.1223C59.3031 23.6691 59.4038 24.1415 59.6053 24.5396C59.8115 24.9377 60.1017 25.2446 60.4758 25.4604C60.8499 25.6763 61.2935 25.7842 61.8067 25.7842C62.1473 25.7842 62.459 25.7362 62.742 25.6403C63.0249 25.5444 63.2672 25.4005 63.4686 25.2086C63.67 25.0168 63.8235 24.7818 63.929 24.5036L66.7635 24.6907C66.6197 25.3717 66.3247 25.9664 65.8787 26.4748C65.4374 26.9784 64.8667 27.3717 64.1664 27.6547C63.471 27.9329 62.6676 28.0719 61.7564 28.0719Z" fill="white"/>
<path d="M0.73291 11.3957V10.4245L5.43794 4.38129V4.29496H0.883989V3.10791H7.07823V4.1223L2.50269 10.1223V10.2086H7.22931V11.3957H0.73291Z" fill="white"/>
<path d="M11.6295 11.5899C11.1043 11.5899 10.6277 11.491 10.1996 11.2932C9.77157 11.0917 9.43165 10.8022 9.17985 10.4245C8.92805 10.0432 8.80215 9.58273 8.80215 9.04316C8.80215 8.56834 8.89568 8.18345 9.08273 7.88849C9.26978 7.58992 9.51978 7.35611 9.83273 7.18705C10.1457 7.01798 10.491 6.89208 10.8687 6.80935C11.25 6.72302 11.6331 6.65467 12.018 6.60431C12.5216 6.53956 12.9298 6.491 13.2428 6.45863C13.5593 6.42266 13.7896 6.36331 13.9334 6.28057C14.0809 6.19784 14.1547 6.05395 14.1547 5.84892V5.80575C14.1547 5.27338 14.009 4.85971 13.7176 4.56475C13.4298 4.26978 12.9928 4.1223 12.4065 4.1223C11.7986 4.1223 11.3219 4.25539 10.9766 4.52158C10.6313 4.78777 10.3885 5.07194 10.2482 5.3741L9.03956 4.94244C9.25539 4.43885 9.54316 4.04676 9.90287 3.76619C10.2662 3.48201 10.6619 3.28417 11.0899 3.17266C11.5216 3.05755 11.946 3 12.3633 3C12.6295 3 12.9352 3.03237 13.2806 3.09712C13.6295 3.15827 13.9658 3.28597 14.2896 3.48021C14.6169 3.67446 14.8885 3.96762 15.1043 4.35971C15.3201 4.7518 15.428 5.27698 15.428 5.93525V11.3957H14.1547V10.2734H14.0899C14.0036 10.4532 13.8597 10.6457 13.6583 10.8507C13.4568 11.0557 13.1888 11.2302 12.8543 11.3741C12.5198 11.518 12.1115 11.5899 11.6295 11.5899ZM11.8237 10.446C12.3273 10.446 12.7518 10.3471 13.0971 10.1493C13.446 9.95143 13.7086 9.69604 13.8849 9.38309C14.0647 9.07014 14.1547 8.741 14.1547 8.39568V7.23021C14.1007 7.29496 13.982 7.35431 13.7985 7.40827C13.6187 7.45863 13.4101 7.50359 13.1727 7.54316C12.9388 7.57913 12.7104 7.61151 12.4874 7.64028C12.268 7.66546 12.0899 7.68705 11.9532 7.70503C11.6223 7.7482 11.3129 7.81834 11.0252 7.91546C10.741 8.00899 10.5108 8.15107 10.3345 8.34172C10.1619 8.52877 10.0755 8.78417 10.0755 9.10791C10.0755 9.55035 10.2392 9.88489 10.5665 10.1115C10.8975 10.3345 11.3165 10.446 11.8237 10.446Z" fill="white"/>
<path d="M17.7522 11.3957V3.10791H19.0256V11.3957H17.7522ZM18.3997 1.72662C18.1515 1.72662 17.9375 1.64209 17.7576 1.47302C17.5814 1.30396 17.4932 1.10072 17.4932 0.863309C17.4932 0.625899 17.5814 0.422662 17.7576 0.253597C17.9375 0.0845322 18.1515 0 18.3997 0C18.6479 0 18.8601 0.0845322 19.0364 0.253597C19.2163 0.422662 19.3062 0.625899 19.3062 0.863309C19.3062 1.10072 19.2163 1.30396 19.0364 1.47302C18.8601 1.64209 18.6479 1.72662 18.3997 1.72662Z" fill="white"/>
<path d="M22.6313 6.41007V11.3957H21.3579V3.10791H22.5881V4.40287H22.696C22.8903 3.98201 23.1852 3.64388 23.5809 3.38849C23.9766 3.12949 24.4874 3 25.1133 3C25.6744 3 26.1655 3.11511 26.5863 3.34532C27.0072 3.57194 27.3345 3.91726 27.5683 4.38129C27.8021 4.84172 27.919 5.42446 27.919 6.12949V11.3957H26.6457V6.21582C26.6457 5.56475 26.4766 5.05755 26.1385 4.69424C25.8003 4.32734 25.3363 4.14388 24.7464 4.14388C24.3399 4.14388 23.9766 4.23201 23.6565 4.40827C23.3399 4.58453 23.0899 4.84172 22.9065 5.17985C22.723 5.51798 22.6313 5.92805 22.6313 6.41007Z" fill="white"/>
<path d="M30.0085 11.3957V10.4245L34.7136 4.38129V4.29496H30.1596V3.10791H36.3538V4.1223L31.7783 10.1223V10.2086H36.5049V11.3957H30.0085Z" fill="white"/>
<path d="M41.5957 11.5683C40.8475 11.5683 40.1911 11.3903 39.6263 11.0342C39.0652 10.6781 38.6263 10.1799 38.3098 9.53956C37.9968 8.89928 37.8404 8.15108 37.8404 7.29496C37.8404 6.43165 37.9968 5.67805 38.3098 5.03417C38.6263 4.39029 39.0652 3.89029 39.6263 3.53417C40.1911 3.17806 40.8475 3 41.5957 3C42.3439 3 42.9986 3.17806 43.5598 3.53417C44.1245 3.89029 44.5634 4.39029 44.8763 5.03417C45.1929 5.67805 45.3511 6.43165 45.3511 7.29496C45.3511 8.15108 45.1929 8.89928 44.8763 9.53956C44.5634 10.1799 44.1245 10.6781 43.5598 11.0342C42.9986 11.3903 42.3439 11.5683 41.5957 11.5683ZM41.5957 10.4245C42.1641 10.4245 42.6317 10.2788 42.9986 9.9874C43.3655 9.69604 43.6371 9.31295 43.8134 8.83813C43.9896 8.36331 44.0778 7.84892 44.0778 7.29496C44.0778 6.741 43.9896 6.22482 43.8134 5.7464C43.6371 5.26798 43.3655 4.88129 42.9986 4.58633C42.6317 4.29136 42.1641 4.14388 41.5957 4.14388C41.0274 4.14388 40.5598 4.29136 40.1929 4.58633C39.826 4.88129 39.5544 5.26798 39.3781 5.7464C39.2019 6.22482 39.1137 6.741 39.1137 7.29496C39.1137 7.84892 39.2019 8.36331 39.3781 8.83813C39.5544 9.31295 39.826 9.69604 40.1929 9.9874C40.5598 10.2788 41.0274 10.4245 41.5957 10.4245Z" fill="white"/>
</svg>
